<svg xmlns="http://www.w3.org/2000/svg" width="430" height="140" viewBox="0 0 430 140">
<rect x="44.20" y="72.00" width="28.80" height="6.00" rx="3.00" fill="#3A4A5C"/>
<rect x="47.80" y="62.40" width="28.80" height="6.00" rx="3.00" fill="#D4D8DC"/>
<rect x="51.40" y="52.80" width="28.80" height="6.00" rx="3.00" fill="#F4F1EB"/>
<rect x="55.00" y="43.20" width="28.80" height="6.00" rx="3.00" fill="#C9A84C"/><path d="M118.59912109375 221.4493408203125 36.60009765625 164.60009765625Q59.77508544921875 117.37518310546875 98.11245727539062 76.43771362304688Q136.4498291015625 35.500244140625 187.7496337890625 11.000244140625Q239.0494384765625 -13.499755859375 299.19921875 -13.499755859375Q343.299072265625 -13.499755859375 383.9864196777344 0.67523193359375Q424.67376708984375 14.8502197265625 456.92364501953125 41.37518310546875Q489.17352294921875 67.900146484375 507.8109436035156 106.21255493164062Q526.4483642578125 144.52496337890625 526.4483642578125 192.62481689453125Q526.4483642578125 239.39990234375 510.32330322265625 273.72491455078125Q494.1982421875 308.0499267578125 468.22320556640625 332.9873962402344Q442.2481689453125 357.92486572265625 410.898193359375 374.7123107910156Q379.5482177734375 391.499755859375 349.098388671875 402.37469482421875Q291.59814453125 422.32476806640625 256.3606262207031 442.07489013671875Q221.12310791015625 461.82501220703125 205.16067504882812 484.400146484375Q189.1982421875 506.97528076171875 189.1982421875 534.5753784179688Q189.1982421875 565.6005859375 213.18588256835938 589.6883239746094Q237.17352294921875 613.7760620117188 288.22393798828125 613.7760620117188Q325.37420654296875 613.7760620117188 352.3868103027344 599.3509521484375Q379.3994140625 584.9258422851562 399.3119201660156 561.7632141113281Q419.22442626953125 538.6005859375 432.7493896484375 512.7755737304688L521.498291015625 563.1749877929688Q504.1483154296875 600 473.0108947753906 633.9374694824219Q441.87347412109375 667.8749389648438 396.92364501953125 689.8124084472656Q351.97381591796875 711.7498779296875 291.12408447265625 711.7498779296875Q229.67425537109375 711.7498779296875 181.0494384765625 688.1623840332031Q132.42462158203125 664.5748901367188 104.499755859375 622.5249633789062Q76.57489013671875 580.4750366210938 76.57489013671875 525.500244140625Q76.57489013671875 476.62530517578125 95.2498779296875 442.57537841796875Q113.92486572265625 408.52545166015625 143.01235961914062 385.2380065917969Q172.099853515625 361.9505615234375 204.18734741210938 347.0130920410156Q236.27484130859375 332.07562255859375 262.099853515625 322.900634765625Q305.07464599609375 307.500732421875 339.2622375488281 290.7881774902344Q373.4498291015625 274.07562255859375 393.2624816894531 249.22540283203125Q413.07513427734375 224.37518310546875 413.07513427734375 183.1497802734375Q413.07513427734375 139.52447509765625 381.87493896484375 112.11172485351562Q350.67474365234375 84.698974609375 299.92437744140625 84.698974609375Q259.8492431640625 84.698974609375 227.28671264648438 101.82403564453125Q194.72418212890625 118.9490966796875 168.31167602539062 149.81167602539062Q141.899169921875 180.67425537109375 118.59912109375 221.4493408203125Z" transform="translate(122.00,108.00) scale(0.07400,-0.07400)" fill="#F4F1EB"/>
<path d="M5 460V371.0009765625H256.87347412109375V460ZM81.7498779296875 620V0H180.12359619140625V620Z" transform="translate(165.66,108.00) scale(0.07400,-0.07400)" fill="#F4F1EB"/>
<path d="M169.87396240234375 460H70.62530517578125V0H169.87396240234375ZM307.12408447265625 352.7513427734375 357.2486572265625 436.60009765625Q340.82354736328125 455.2501220703125 318.97357177734375 462.800048828125Q297.12359619140625 470.3499755859375 272.12359619140625 470.3499755859375Q238.37371826171875 470.3499755859375 206.23629760742188 445.2624816894531Q174.098876953125 420.17498779296875 153.98641967773438 377.5874938964844Q133.87396240234375 335 133.87396240234375 280L169.87396240234375 265.12603759765625Q169.87396240234375 298.12603759765625 177.07391357421875 323.2510986328125Q184.27386474609375 348.37615966796875 201.27386474609375 362.501220703125Q218.27386474609375 376.62628173828125 245.9990234375 376.62628173828125Q265.9990234375 376.62628173828125 279.17401123046875 370.6888122558594Q292.3489990234375 364.7513427734375 307.12408447265625 352.7513427734375Z" transform="translate(186.53,108.00) scale(0.07400,-0.07400)" fill="#F4F1EB"/>
<path d="M129.37371826171875 142.52496337890625Q129.37371826171875 165.2501220703125 140.1488037109375 181.41275024414062Q150.92388916015625 197.57537841796875 173.1490478515625 206.52545166015625Q195.37420654296875 215.47552490234375 230.87445068359375 215.47552490234375Q270.77459716796875 215.47552490234375 306.2872009277344 205.23800659179688Q341.7998046875 195.00048828125 373.6500244140625 172.57537841796875V225.17498779296875Q365.2501220703125 235.39990234375 344.1127014160156 249.199951171875Q322.97528076171875 263 289.47528076171875 273.5375671386719Q255.97528076171875 284.07513427734375 208.42510986328125 284.07513427734375Q122.900146484375 284.07513427734375 75.57513427734375 244.10009765625Q28.2501220703125 204.12506103515625 28.2501220703125 137.300048828125Q28.2501220703125 90.300048828125 50.42510986328125 57.387542724609375Q72.60009765625 24.47503662109375 109.36257934570312 7.237518310546875Q146.12506103515625 -10 188.6500244140625 -10Q228.39990234375 -10 266.8124084472656 4.437469482421875Q305.22491455078125 18.87493896484375 330.9374694824219 48.312408447265625Q356.6500244140625 77.7498779296875 356.6500244140625 121.7498779296875L340.6500244140625 181.7498779296875Q340.6500244140625 146.7998046875 324.199951171875 120.87469482421875Q307.7498779296875 94.9495849609375 280.3497314453125 81.08700561523438Q252.9495849609375 67.22442626953125 219.099365234375 67.22442626953125Q193.07415771484375 67.22442626953125 172.67401123046875 75.8494873046875Q152.27386474609375 84.47454833984375 140.82379150390625 101.63717651367188Q129.37371826171875 118.7998046875 129.37371826171875 142.52496337890625ZM101.7998046875 344.20068359375Q112.4498291015625 351.67572021484375 132.32476806640625 362.2382507324219Q152.19970703125 372.80078125 180.31216430664062 380.5382995605469Q208.42462158203125 388.27581787109375 241.37469482421875 388.27581787109375Q262.37469482421875 388.27581787109375 280.67474365234375 384.1883239746094Q298.97479248046875 380.100830078125 312.5123596191406 371.1883239746094Q326.0499267578125 362.27581787109375 333.3499755859375 347.5632629394531Q340.6500244140625 332.8507080078125 340.6500244140625 310.77557373046875V0H439.02374267578125V328.2501220703125Q439.02374267578125 374.12506103515625 415.0363464355469 405.7375183105469Q391.0489501953125 437.3499755859375 348.3616027832031 454.1124572753906Q305.67425537109375 470.87493896484375 249.7493896484375 470.87493896484375Q185.3994140625 470.87493896484375 137.27459716796875 452.39990234375Q89.1497802734375 433.92486572265625 59.300048828125 414.92486572265625Z" transform="translate(214.80,108.00) scale(0.07400,-0.07400)" fill="#F4F1EB"/>
<path d="M5 460V371.0009765625H256.87347412109375V460ZM81.7498779296875 620V0H180.12359619140625V620Z" transform="translate(253.05,108.00) scale(0.07400,-0.07400)" fill="#F4F1EB"/>
<path d="M34.12506103515625 230Q34.12506103515625 160.12506103515625 66.41250610351562 105.71255493164062Q98.699951171875 51.300048828125 154.27484130859375 20.6500244140625Q209.8497314453125 -10 279.12457275390625 -10Q349.22442626953125 -10 404.3868103027344 20.6500244140625Q459.5491943359375 51.300048828125 491.8366394042969 105.71255493164062Q524.1240844726562 160.12506103515625 524.1240844726562 230Q524.1240844726562 300.87493896484375 491.8366394042969 354.87493896484375Q459.5491943359375 408.87493896484375 404.3868103027344 439.52496337890625Q349.22442626953125 470.17498779296875 279.12457275390625 470.17498779296875Q209.8497314453125 470.17498779296875 154.27484130859375 439.52496337890625Q98.699951171875 408.87493896484375 66.41250610351562 354.87493896484375Q34.12506103515625 300.87493896484375 34.12506103515625 230ZM136.12359619140625 230Q136.12359619140625 274.500244140625 154.96121215820312 308.7629699707031Q173.798828125 343.02569580078125 206.1490478515625 362.100830078125Q238.499267578125 381.17596435546875 279.12457275390625 381.17596435546875Q319.7498779296875 381.17596435546875 352.10009765625 362.100830078125Q384.4503173828125 343.02569580078125 403.2879333496094 308.7629699707031Q422.12554931640625 274.500244140625 422.12554931640625 230Q422.12554931640625 185.499755859375 403.2879333496094 151.6495361328125Q384.4503173828125 117.79931640625 352.10009765625 98.399169921875Q319.7498779296875 78.9990234375 279.12457275390625 78.9990234375Q238.499267578125 78.9990234375 206.1490478515625 98.399169921875Q173.798828125 117.79931640625 154.96121215820312 151.6495361328125Q136.12359619140625 185.499755859375 136.12359619140625 230Z" transform="translate(273.92,108.00) scale(0.07400,-0.07400)" fill="#F4F1EB"/>
<path d="M91.2001953125 148.3494873046875 28.2001953125 92.20068359375Q46.27484130859375 66.07562255859375 74.66213989257812 41.82550048828125Q103.0494384765625 17.57537841796875 141.62432861328125 2.47528076171875Q180.19921875 -12.62481689453125 227.2491455078125 -12.62481689453125Q301.39892578125 -12.62481689453125 345.5113830566406 26.762725830078125Q389.62384033203125 66.1502685546875 389.62384033203125 130Q389.62384033203125 171.52496337890625 370.3863220214844 197.52496337890625Q351.1488037109375 223.52496337890625 318.8487548828125 241.58749389648438Q286.5487060546875 259.6500244140625 247.77362060546875 274.9500732421875Q220.97381591796875 285.82501220703125 198.53634643554688 296.12506103515625Q176.098876953125 306.42510986328125 162.53634643554688 319.2876892089844Q148.97381591796875 332.1502685546875 148.97381591796875 349.27532958984375Q148.97381591796875 369.47552490234375 164.87396240234375 379.6005859375Q180.77410888671875 389.72564697265625 204.5491943359375 389.72564697265625Q239.1492919921875 389.72564697265625 270.09912109375 372.6381530761719Q301.0489501953125 355.5506591796875 322.67376708984375 329.02569580078125L383.87396240234375 386.12457275390625Q366.37420654296875 410.37469482421875 339.79931640625 428.97479248046875Q313.22442626953125 447.57489013671875 280.1119689941406 458.7874450683594Q246.99951171875 470 209.12457275390625 470Q168.62481689453125 470 132.89990234375 456.47503662109375Q97.17498779296875 442.9500732421875 75.41250610351562 415.3376159667969Q53.6500244140625 387.72515869140625 53.6500244140625 346.37518310546875Q53.6500244140625 305.32525634765625 73.71255493164062 278.3877868652344Q93.77508544921875 251.4503173828125 124.10009765625 234.9503173828125Q154.42510986328125 218.4503173828125 185.12506103515625 206.62530517578125Q214.92486572265625 196.100341796875 238.22491455078125 185.12530517578125Q261.52496337890625 174.1502685546875 275.27508544921875 159.31265258789062Q289.02520751953125 144.47503662109375 289.02520751953125 123.099853515625Q289.02520751953125 99.07464599609375 271.800048828125 85.1495361328125Q254.57489013671875 71.22442626953125 223.72467041015625 71.22442626953125Q199.22442626953125 71.22442626953125 176.07440185546875 80.58700561523438Q152.92437744140625 89.9495849609375 132.03707885742188 107.51211547851562Q111.1497802734375 125.07464599609375 91.2001953125 148.3494873046875Z" transform="translate(316.69,108.00) scale(0.07400,-0.07400)" fill="#F4F1EB"/>
<path d="M265.63,107.15 Q291.16,96.94 297.63,88.94" fill="none" stroke="#C9A84C" stroke-width="1.87" stroke-linecap="round" opacity="0.6"/><g transform="translate(298.99,82.47) rotate(-30)"><path d="M20.08,0 L2.41,2.41 L-3.62,11.05 L-5.62,3.62 L-12.45,6.83 L-15.67,2.01 L-15.67,-2.01 L-12.45,-6.83 L-5.62,-3.62 L-3.62,-11.05 L2.41,-2.41 Z" fill="#C9A84C"/></g>
</svg>